<svg xmlns="http://www.w3.org/2000/svg" xmlns:xlink="http://www.w3.org/1999/xlink" width="377" zoomAndPan="magnify" viewBox="0 0 282.96 425.249987" height="566" preserveAspectRatio="xMidYMid meet" version="1.0"><defs><clipPath id="3cd8162aa2"><path d="M 28.527344 177 L 271.847656 177 L 271.847656 325.238281 L 28.527344 325.238281 Z M 28.527344 177 " clip-rule="nonzero"/></clipPath></defs><g clip-path="url(#3cd8162aa2)"><path fill="#000000" d="M 41.75 183.613281 C 41.75 187.269531 38.792969 190.230469 35.140625 190.230469 C 31.488281 190.230469 28.527344 187.269531 28.527344 183.613281 C 28.527344 179.960938 31.488281 177 35.140625 177 C 38.789062 177 41.75 179.960938 41.75 183.613281 Z M 35.140625 195.527344 C 31.488281 195.527344 28.527344 198.488281 28.527344 202.144531 C 28.527344 205.796875 31.488281 208.761719 35.140625 208.761719 C 38.789062 208.761719 41.75 205.796875 41.75 202.144531 C 41.75 198.488281 38.792969 195.527344 35.140625 195.527344 Z M 61.585938 177 C 57.9375 177 54.976562 179.960938 54.976562 183.613281 C 54.976562 187.269531 57.9375 190.230469 61.585938 190.230469 C 65.238281 190.230469 68.199219 187.269531 68.199219 183.613281 C 68.199219 179.960938 65.238281 177 61.585938 177 Z M 61.585938 195.527344 C 57.9375 195.527344 54.976562 198.488281 54.976562 202.144531 C 54.976562 205.796875 57.9375 208.761719 61.585938 208.761719 C 65.238281 208.761719 68.199219 205.796875 68.199219 202.144531 C 68.199219 198.488281 65.238281 195.527344 61.585938 195.527344 Z M 80.101562 195.527344 C 76.449219 195.527344 73.488281 198.488281 73.488281 202.144531 C 73.488281 205.796875 76.449219 208.761719 80.101562 208.761719 C 83.75 208.761719 86.710938 205.796875 86.710938 202.144531 C 86.710938 198.488281 83.753906 195.527344 80.101562 195.527344 Z M 61.585938 214.054688 C 57.9375 214.054688 54.976562 217.015625 54.976562 220.671875 C 54.976562 224.324219 57.9375 227.289062 61.585938 227.289062 C 65.238281 227.289062 68.199219 224.324219 68.199219 220.671875 C 68.199219 217.015625 65.238281 214.054688 61.585938 214.054688 Z M 106.546875 177 C 102.894531 177 99.9375 179.960938 99.9375 183.613281 C 99.9375 187.269531 102.898438 190.230469 106.546875 190.230469 C 110.199219 190.230469 113.160156 187.269531 113.160156 183.613281 C 113.160156 179.960938 110.199219 177 106.546875 177 Z M 159.441406 190.234375 C 163.09375 190.234375 166.054688 187.269531 166.054688 183.617188 C 166.054688 179.960938 163.09375 177 159.441406 177 C 155.789062 177 152.832031 179.960938 152.832031 183.613281 C 152.832031 187.269531 155.789062 190.234375 159.441406 190.234375 Z M 132.996094 208.761719 C 136.648438 208.761719 139.605469 205.796875 139.605469 202.144531 C 139.605469 198.488281 136.648438 195.527344 132.996094 195.527344 C 129.34375 195.527344 126.382812 198.488281 126.382812 202.144531 C 126.382812 205.796875 129.34375 208.761719 132.996094 208.761719 Z M 265.234375 195.527344 C 261.582031 195.527344 258.621094 198.488281 258.621094 202.144531 C 258.621094 205.796875 261.582031 208.761719 265.234375 208.761719 C 268.882812 208.761719 271.84375 205.796875 271.84375 202.144531 C 271.84375 198.488281 268.882812 195.527344 265.234375 195.527344 Z M 185.890625 177 C 182.238281 177 179.277344 179.960938 179.277344 183.613281 C 179.277344 187.269531 182.238281 190.230469 185.890625 190.230469 C 189.542969 190.230469 192.5 187.269531 192.5 183.613281 C 192.503906 179.960938 189.542969 177 185.890625 177 Z M 185.890625 195.527344 C 182.238281 195.527344 179.277344 198.488281 179.277344 202.144531 C 179.277344 205.796875 182.238281 208.761719 185.890625 208.761719 C 189.542969 208.761719 192.5 205.796875 192.5 202.144531 C 192.503906 198.488281 189.542969 195.527344 185.890625 195.527344 Z M 185.890625 214.054688 C 182.238281 214.054688 179.277344 217.015625 179.277344 220.671875 C 179.277344 224.324219 182.238281 227.289062 185.890625 227.289062 C 189.542969 227.289062 192.5 224.324219 192.5 220.671875 C 192.503906 217.015625 189.542969 214.054688 185.890625 214.054688 Z M 212.335938 177 C 208.6875 177 205.726562 179.960938 205.726562 183.613281 C 205.726562 187.269531 208.6875 190.230469 212.335938 190.230469 C 215.988281 190.230469 218.949219 187.269531 218.949219 183.613281 C 218.949219 179.960938 215.988281 177 212.335938 177 Z M 212.335938 195.527344 C 208.6875 195.527344 205.726562 198.488281 205.726562 202.144531 C 205.726562 205.796875 208.6875 208.761719 212.335938 208.761719 C 215.988281 208.761719 218.949219 205.796875 218.949219 202.144531 C 218.949219 198.488281 215.988281 195.527344 212.335938 195.527344 Z M 212.335938 214.054688 C 208.6875 214.054688 205.726562 217.015625 205.726562 220.671875 C 205.726562 224.324219 208.6875 227.289062 212.335938 227.289062 C 215.988281 227.289062 218.949219 224.324219 218.949219 220.671875 C 218.949219 217.015625 215.988281 214.054688 212.335938 214.054688 Z M 238.785156 177 C 235.132812 177 232.171875 179.960938 232.171875 183.613281 C 232.171875 187.269531 235.132812 190.230469 238.785156 190.230469 C 242.4375 190.230469 245.398438 187.269531 245.398438 183.613281 C 245.398438 179.960938 242.4375 177 238.785156 177 Z M 175.277344 268.113281 C 172.363281 268.113281 169.996094 270.480469 169.996094 273.398438 L 169.996094 279.765625 L 168.941406 279.765625 L 168.941406 268.464844 C 168.941406 265.546875 166.574219 263.179688 163.660156 263.179688 C 160.742188 263.179688 158.378906 265.546875 158.378906 268.464844 L 158.378906 279.765625 L 157.320312 279.765625 L 157.320312 263.179688 C 157.320312 260.261719 154.957031 257.894531 152.039062 257.894531 C 149.125 257.894531 146.757812 260.261719 146.757812 263.179688 L 146.757812 279.765625 L 145.703125 279.765625 L 145.703125 245.808594 C 145.703125 242.890625 143.335938 240.523438 140.421875 240.523438 C 137.503906 240.523438 135.140625 242.890625 135.140625 245.808594 L 135.140625 296.351562 L 128.828125 290.035156 C 126.765625 287.972656 123.421875 287.972656 121.359375 290.035156 C 119.296875 292.101562 119.296875 295.445312 121.359375 297.511719 L 138.789062 314.953125 C 138.910156 315.078125 139.019531 315.207031 139.117188 315.347656 C 143.210938 321.3125 150.074219 325.222656 157.847656 325.222656 C 170.390625 325.222656 180.558594 315.046875 180.558594 302.492188 L 180.558594 273.398438 C 180.558594 270.480469 178.195312 268.113281 175.277344 268.113281 Z M 175.277344 268.113281 " fill-opacity="1" fill-rule="nonzero"/></g></svg>