<svg xmlns="http://www.w3.org/2000/svg" xmlns:xlink="http://www.w3.org/1999/xlink" width="377" zoomAndPan="magnify" viewBox="0 0 282.96 425.249987" height="566" preserveAspectRatio="xMidYMid meet" version="1.0"><defs><clipPath id="ffffe50694"><path d="M 14.378906 171 L 198 171 L 198 364 L 14.378906 364 Z M 14.378906 171 " clip-rule="nonzero"/></clipPath></defs><path fill="#000000" d="M 265.863281 287.613281 C 263.417969 282.722656 257.542969 280.671875 252.589844 283.117188 L 227.234375 295.617188 L 193.488281 230.753906 C 191.773438 227.445312 188.40625 225.398438 184.707031 225.398438 L 121.777344 225.398438 L 119.265625 204.503906 L 172.359375 204.503906 C 177.839844 204.503906 182.265625 200.074219 182.265625 194.585938 C 182.265625 189.097656 177.839844 184.667969 172.359375 184.667969 L 116.890625 184.667969 L 112.003906 143.804688 C 158.027344 149.625 163.707031 81.519531 117.285156 79.40625 C 91.929688 78.613281 75.816406 109.621094 90.410156 129.988281 C 90.277344 130.054688 103.222656 236.304688 103.15625 236.503906 C 103.75 241.464844 107.976562 245.234375 112.996094 245.234375 L 178.699219 245.234375 L 214.15625 313.335938 C 216.667969 318.164062 222.609375 320.015625 227.296875 317.632812 C 227.296875 317.632812 261.371094 300.839844 261.371094 300.839844 C 266.257812 298.523438 268.304688 292.574219 265.863281 287.613281 Z M 265.863281 287.613281 " fill-opacity="1" fill-rule="nonzero"/><g clip-path="url(#ffffe50694)"><path fill="#000000" d="M 179.886719 315.386719 C 129.765625 372.976562 34.28125 337.136719 34.28125 260.703125 C 34.28125 231.679688 49.007812 205.230469 73.703125 189.890625 C 84.664062 182.882812 74.429688 166.285156 63.269531 173.03125 C 32.695312 192.007812 14.40625 224.734375 14.40625 260.703125 C 14.40625 317.5 60.496094 363.71875 117.21875 363.71875 C 146.871094 363.71875 175.132812 350.824219 194.742188 328.410156 C 203.128906 318.492188 188.601562 305.730469 179.886719 315.386719 Z M 179.886719 315.386719 " fill-opacity="1" fill-rule="nonzero"/></g></svg>