<svg xmlns="http://www.w3.org/2000/svg" xmlns:xlink="http://www.w3.org/1999/xlink" width="377" zoomAndPan="magnify" viewBox="0 0 282.96 425.249987" height="566" preserveAspectRatio="xMidYMid meet" version="1.0"><defs><clipPath id="d3ad57b3ca"><path d="M 103 115.09375 L 157 115.09375 L 157 132 L 103 132 Z M 103 115.09375 " clip-rule="nonzero"/></clipPath><clipPath id="c27d530323"><path d="M 23.53125 231 L 85 231 L 85 298.519531 L 23.53125 298.519531 Z M 23.53125 231 " clip-rule="nonzero"/></clipPath><clipPath id="ca12d570ca"><path d="M 84 161 L 260.113281 161 L 260.113281 298 L 84 298 Z M 84 161 " clip-rule="nonzero"/></clipPath></defs><path fill="#000000" d="M 142.230469 140.8125 C 142.230469 143.820312 139.785156 146.269531 136.777344 146.269531 C 133.769531 146.269531 131.324219 143.820312 131.324219 140.8125 C 131.324219 140.628906 131.332031 140.445312 131.351562 140.265625 L 129.054688 140.265625 C 129.070312 140.445312 129.082031 140.628906 129.082031 140.8125 C 129.082031 143.820312 126.632812 146.269531 123.625 146.269531 C 120.617188 146.269531 118.171875 143.820312 118.171875 140.8125 C 118.171875 140.628906 118.179688 140.445312 118.199219 140.265625 L 113.859375 140.265625 C 113.84375 140.546875 113.839844 140.828125 113.839844 141.113281 C 113.839844 150.152344 121.164062 157.484375 130.203125 157.484375 C 139.238281 157.484375 146.566406 150.152344 146.566406 141.113281 C 146.566406 140.828125 146.558594 140.546875 146.542969 140.265625 L 142.203125 140.265625 C 142.222656 140.445312 142.230469 140.628906 142.230469 140.8125 Z M 142.230469 140.8125 " fill-opacity="1" fill-rule="nonzero"/><path fill="#000000" d="M 114.003906 138.8125 L 118.554688 138.8125 C 119.355469 136.789062 121.324219 135.355469 123.625 135.355469 C 125.925781 135.355469 127.894531 136.789062 128.695312 138.8125 L 131.707031 138.8125 C 132.507812 136.789062 134.476562 135.355469 136.777344 135.355469 C 139.078125 135.355469 141.046875 136.789062 141.847656 138.8125 L 146.402344 138.8125 C 146.125 136.847656 145.503906 134.992188 144.59375 133.316406 L 115.808594 133.316406 C 114.902344 134.992188 114.28125 136.847656 114.003906 138.8125 Z M 114.003906 138.8125 " fill-opacity="1" fill-rule="nonzero"/><g clip-path="url(#d3ad57b3ca)"><path fill="#000000" d="M 156.566406 131.859375 L 156.566406 129.40625 L 145.59375 129.40625 L 144.738281 119.15625 C 144.738281 119.15625 139.648438 115.277344 130.113281 115.277344 C 120.578125 115.277344 115.484375 119.15625 115.484375 119.15625 L 114.632812 129.40625 L 103.660156 129.40625 L 103.660156 131.859375 Z M 156.566406 131.859375 " fill-opacity="1" fill-rule="nonzero"/></g><path fill="#000000" d="M 127.746094 140.8125 C 127.746094 141.082031 127.71875 141.351562 127.664062 141.617188 C 127.613281 141.882812 127.535156 142.140625 127.429688 142.390625 C 127.328125 142.640625 127.199219 142.875 127.050781 143.101562 C 126.902344 143.328125 126.730469 143.535156 126.539062 143.726562 C 126.347656 143.917969 126.140625 144.089844 125.914062 144.238281 C 125.691406 144.390625 125.453125 144.515625 125.203125 144.621094 C 124.953125 144.722656 124.695312 144.800781 124.429688 144.855469 C 124.164062 144.90625 123.898438 144.933594 123.625 144.933594 C 123.355469 144.933594 123.089844 144.90625 122.824219 144.855469 C 122.558594 144.800781 122.300781 144.722656 122.050781 144.621094 C 121.800781 144.515625 121.5625 144.390625 121.339844 144.238281 C 121.113281 144.089844 120.90625 143.917969 120.714844 143.726562 C 120.523438 143.535156 120.351562 143.328125 120.203125 143.101562 C 120.050781 142.875 119.925781 142.640625 119.820312 142.390625 C 119.71875 142.140625 119.640625 141.882812 119.585938 141.617188 C 119.535156 141.351562 119.507812 141.082031 119.507812 140.8125 C 119.507812 140.542969 119.535156 140.273438 119.585938 140.007812 C 119.640625 139.742188 119.71875 139.484375 119.820312 139.234375 C 119.925781 138.984375 120.050781 138.75 120.203125 138.523438 C 120.351562 138.296875 120.523438 138.089844 120.714844 137.898438 C 120.90625 137.707031 121.113281 137.535156 121.339844 137.386719 C 121.5625 137.238281 121.800781 137.109375 122.050781 137.007812 C 122.300781 136.902344 122.558594 136.824219 122.824219 136.773438 C 123.089844 136.71875 123.355469 136.691406 123.625 136.691406 C 123.898438 136.691406 124.164062 136.71875 124.429688 136.773438 C 124.695312 136.824219 124.953125 136.902344 125.203125 137.007812 C 125.453125 137.109375 125.691406 137.238281 125.914062 137.386719 C 126.140625 137.535156 126.347656 137.707031 126.539062 137.898438 C 126.730469 138.089844 126.902344 138.296875 127.050781 138.523438 C 127.199219 138.75 127.328125 138.984375 127.429688 139.234375 C 127.535156 139.484375 127.613281 139.742188 127.664062 140.007812 C 127.71875 140.273438 127.746094 140.542969 127.746094 140.8125 Z M 127.746094 140.8125 " fill-opacity="1" fill-rule="nonzero"/><path fill="#000000" d="M 140.894531 140.8125 C 140.894531 141.082031 140.871094 141.351562 140.816406 141.617188 C 140.765625 141.882812 140.6875 142.140625 140.582031 142.390625 C 140.480469 142.640625 140.351562 142.875 140.203125 143.101562 C 140.050781 143.328125 139.882812 143.535156 139.691406 143.726562 C 139.5 143.917969 139.289062 144.089844 139.066406 144.238281 C 138.839844 144.390625 138.605469 144.515625 138.355469 144.621094 C 138.105469 144.722656 137.847656 144.800781 137.582031 144.855469 C 137.316406 144.90625 137.046875 144.933594 136.777344 144.933594 C 136.507812 144.933594 136.238281 144.90625 135.972656 144.855469 C 135.707031 144.800781 135.453125 144.722656 135.203125 144.621094 C 134.953125 144.515625 134.714844 144.390625 134.488281 144.238281 C 134.265625 144.089844 134.054688 143.917969 133.867188 143.726562 C 133.675781 143.535156 133.503906 143.328125 133.351562 143.101562 C 133.203125 142.875 133.074219 142.640625 132.972656 142.390625 C 132.867188 142.140625 132.789062 141.882812 132.738281 141.617188 C 132.683594 141.351562 132.660156 141.082031 132.660156 140.8125 C 132.660156 140.542969 132.683594 140.273438 132.738281 140.007812 C 132.789062 139.742188 132.867188 139.484375 132.972656 139.234375 C 133.074219 138.984375 133.203125 138.75 133.351562 138.523438 C 133.503906 138.296875 133.675781 138.089844 133.867188 137.898438 C 134.054688 137.707031 134.265625 137.535156 134.488281 137.386719 C 134.714844 137.238281 134.953125 137.109375 135.203125 137.007812 C 135.453125 136.902344 135.707031 136.824219 135.972656 136.773438 C 136.238281 136.71875 136.507812 136.691406 136.777344 136.691406 C 137.046875 136.691406 137.316406 136.71875 137.582031 136.773438 C 137.847656 136.824219 138.105469 136.902344 138.355469 137.007812 C 138.605469 137.109375 138.839844 137.238281 139.066406 137.386719 C 139.289062 137.535156 139.5 137.707031 139.691406 137.898438 C 139.882812 138.089844 140.050781 138.296875 140.203125 138.523438 C 140.351562 138.75 140.480469 138.984375 140.582031 139.234375 C 140.6875 139.484375 140.765625 139.742188 140.816406 140.007812 C 140.871094 140.273438 140.894531 140.542969 140.894531 140.8125 Z M 140.894531 140.8125 " fill-opacity="1" fill-rule="nonzero"/><g clip-path="url(#c27d530323)"><path fill="#000000" d="M 23.523438 296.742188 L 83.007812 231.660156 L 84.714844 233.21875 L 25.230469 298.300781 Z M 23.523438 296.742188 " fill-opacity="1" fill-rule="nonzero"/></g><path fill="#000000" d="M 207.992188 233.109375 C 212.480469 228.542969 209.335938 222.605469 209.335938 222.605469 C 209.335938 222.605469 207.785156 225.191406 205.386719 227.671875 C 204.84375 223.164062 200.644531 220.847656 200.644531 220.847656 C 200.644531 220.847656 200.769531 224.113281 200.023438 227.675781 C 199.167969 227.53125 198.320312 227.488281 197.609375 227.664062 C 195.03125 228.289062 192.285156 230.390625 189.785156 228.210938 C 187.285156 226.03125 186.988281 225.691406 185.613281 225.710938 C 184.238281 225.734375 181.40625 233.519531 183.136719 236.921875 C 184.863281 240.328125 191.910156 239.992188 192.367188 241.40625 C 192.828125 242.824219 190.691406 247.464844 187.496094 252.296875 C 189.695312 253.027344 191.882812 253.417969 193.976562 253.582031 L 208.628906 250.863281 C 207.6875 245.164062 207.886719 236.199219 207.992188 233.109375 Z M 198.421875 233.632812 C 197.828125 234.3125 196.796875 234.382812 196.117188 233.789062 C 195.4375 233.195312 195.367188 232.164062 195.957031 231.484375 C 196.550781 230.804688 197.582031 230.734375 198.265625 231.328125 C 198.945312 231.917969 199.015625 232.953125 198.421875 233.632812 Z M 198.421875 233.632812 " fill-opacity="1" fill-rule="nonzero"/><g clip-path="url(#ca12d570ca)"><path fill="#000000" d="M 257.566406 291.359375 C 257.554688 291.359375 257.546875 291.359375 257.535156 291.359375 C 257.464844 291.359375 257.398438 291.359375 257.324219 291.359375 C 246.636719 291.359375 237.910156 282.234375 233.417969 276.394531 C 230.488281 267.785156 223.589844 260.316406 210.757812 254.054688 C 210.160156 253.464844 209.339844 253.113281 208.445312 253.117188 L 187.316406 257.035156 C 187.265625 257.304688 187.234375 257.582031 187.25 257.867188 L 187.273438 258.234375 C 184.375 261.6875 182.472656 266.808594 180.601562 271.839844 C 177.488281 280.226562 174.542969 288.148438 167.5 288.148438 C 166.183594 288.148438 165.136719 287.675781 164.296875 286.703125 C 159.515625 281.164062 162.421875 261.390625 164.546875 246.949219 C 166.1875 235.773438 167.101562 229.007812 166.117188 225.996094 C 166.125 225.929688 166.136719 225.863281 166.140625 225.796875 C 167.9375 195.058594 164.09375 175.003906 154.71875 166.191406 C 150.628906 162.34375 146.628906 161.691406 144.585938 161.644531 C 144.476562 161.640625 144.363281 161.628906 144.25 161.628906 L 116.152344 161.628906 C 115.90625 161.628906 115.667969 161.652344 115.429688 161.679688 C 112.734375 161.882812 106.953125 163.234375 101.0625 170.507812 C 92.734375 180.796875 87.335938 199.109375 85.015625 224.9375 C 84.898438 226.242188 85.230469 227.484375 85.871094 228.519531 L 84.476562 230.042969 L 86.183594 231.601562 L 87.457031 230.207031 C 88.265625 230.78125 89.230469 231.160156 90.292969 231.253906 C 90.46875 231.269531 90.644531 231.277344 90.820312 231.277344 C 93.796875 231.277344 96.335938 229.003906 96.605469 225.976562 C 96.8125 223.703125 97.039062 221.535156 97.285156 219.453125 L 97.632812 219.070312 L 97.355469 218.820312 C 97.371094 218.710938 97.382812 218.605469 97.394531 218.5 C 99.382812 216.972656 101.019531 216.621094 102.320312 217.496094 C 102.15625 218.5625 101.945312 219.796875 101.722656 221.097656 C 100.496094 228.222656 98.816406 237.988281 101.582031 241.269531 C 102.246094 242.058594 103.121094 242.457031 104.183594 242.457031 C 104.609375 242.457031 105.074219 242.390625 105.558594 242.261719 C 105.996094 242.140625 106.25 241.671875 106.496094 240.527344 C 107.46875 236.007812 107.890625 221.160156 103.488281 217.039062 C 103.699219 215.445312 103.566406 214.433594 103.082031 213.871094 C 102.816406 213.566406 102.453125 213.402344 102.03125 213.402344 C 100.800781 213.402344 99.046875 214.902344 97.675781 216.300781 C 100.433594 195.578125 105.132812 184.9375 108.828125 179.554688 C 109.414062 178.699219 109.984375 177.96875 110.53125 177.332031 L 110.53125 288.316406 C 110.53125 293.285156 114.558594 297.308594 119.523438 297.308594 C 124.488281 297.308594 128.515625 293.285156 128.515625 288.316406 L 128.515625 222.636719 L 131.886719 222.636719 L 131.886719 288.316406 C 131.886719 293.285156 135.914062 297.308594 140.878906 297.308594 C 145.84375 297.308594 149.871094 293.285156 149.871094 288.316406 L 149.871094 179.160156 C 153.066406 185.804688 155.914062 199.082031 154.597656 223.792969 C 153.027344 225.226562 152.246094 226.96875 152.199219 227.078125 L 154.195312 227.953125 C 154.199219 227.945312 154.382812 227.542969 154.726562 227.007812 C 155.375 229.34375 157.441406 231.117188 159.992188 231.269531 C 160.109375 231.273438 160.222656 231.277344 160.335938 231.277344 C 161.898438 231.277344 163.328125 230.652344 164.378906 229.632812 C 164.285156 233.707031 163.261719 240.675781 162.386719 246.632812 C 159.960938 263.132812 157.210938 281.835938 162.644531 288.128906 C 163.90625 289.589844 165.539062 290.328125 167.5 290.328125 C 176.058594 290.328125 179.410156 281.316406 182.648438 272.597656 C 184.136719 268.589844 185.59375 264.675781 187.488281 261.683594 L 189.410156 292.636719 C 189.515625 294.320312 190.886719 295.652344 192.574219 295.703125 C 192.609375 295.707031 192.644531 295.707031 192.679688 295.707031 C 194.324219 295.707031 195.71875 294.480469 195.925781 292.835938 L 198.097656 275.332031 C 201.042969 276.96875 205.070312 278.710938 208.832031 280.496094 C 208.089844 278.464844 208.183594 276.195312 210.027344 273.863281 C 211.535156 271.957031 213.480469 271.570312 215.496094 272.003906 C 214.210938 272.214844 213.09375 272.78125 212.25 273.835938 C 206.875 280.53125 216.359375 286.714844 218.257812 288.003906 C 219.472656 288.832031 211.960938 288.9375 207.753906 290.421875 C 205.394531 291.25 204.953125 293.246094 205.519531 294.261719 C 206.777344 296.515625 224.828125 297.101562 232.5625 296.179688 C 234.558594 295.941406 235.878906 295.605469 236.03125 295.167969 C 236.429688 294.039062 235.867188 289.832031 235.25 286.140625 C 240.726562 291.425781 248.300781 296.453125 257.320312 296.453125 C 257.410156 296.453125 257.503906 296.453125 257.59375 296.449219 C 259 296.433594 260.125 295.28125 260.109375 293.875 C 260.09375 292.480469 258.960938 291.359375 257.566406 291.359375 Z M 103.277344 218.425781 C 107.152344 223.433594 106.109375 239.609375 105.15625 241.238281 C 104.808594 241.324219 104.480469 241.367188 104.183594 241.367188 C 103.445312 241.367188 102.867188 241.105469 102.417969 240.566406 C 99.976562 237.671875 101.671875 227.808594 102.796875 221.28125 C 102.96875 220.277344 103.136719 219.308594 103.277344 218.425781 Z M 102.03125 214.496094 C 102.152344 214.496094 102.210938 214.53125 102.257812 214.585938 C 102.363281 214.707031 102.566406 215.105469 102.46875 216.324219 C 101.949219 216.066406 101.390625 215.9375 100.796875 215.9375 C 100.351562 215.9375 99.882812 216.011719 99.398438 216.164062 C 100.449219 215.207031 101.449219 214.496094 102.03125 214.496094 Z M 102.03125 214.496094 " fill-opacity="1" fill-rule="nonzero"/></g></svg>