<svg xmlns="http://www.w3.org/2000/svg" xmlns:xlink="http://www.w3.org/1999/xlink" width="377" zoomAndPan="magnify" viewBox="0 0 282.96 425.249987" height="566" preserveAspectRatio="xMidYMid meet" version="1.0"><path fill="#000000" d="M 50.269531 361.242188 C 59.6875 375.417969 71.742188 385.492188 87.101562 390.347656 C 102.023438 395.066406 120.257812 394.835938 142.601562 387.910156 C 164.835938 381.015625 173.609375 362.808594 178.890625 341.570312 C 183.308594 323.804688 185.0625 303.839844 194.0625 289.570312 C 203.035156 275.351562 218.59375 266.71875 231.859375 255.871094 C 247.371094 243.183594 260.175781 228.019531 260.792969 201.996094 C 261.128906 187.859375 259.21875 174.609375 255.519531 162.414062 C 254.296875 158.394531 250.035156 156.117188 246.003906 157.335938 C 241.976562 158.558594 239.695312 162.816406 240.917969 166.835938 C 244.175781 177.558594 245.839844 189.207031 245.542969 201.636719 C 245.050781 222.25 234.480469 234.03125 222.191406 244.082031 C 207.65625 255.96875 190.988281 265.863281 181.15625 281.449219 C 171.355469 296.980469 168.894531 318.558594 164.085938 337.898438 C 160.140625 353.765625 154.691406 368.207031 138.078125 373.359375 C 101.359375 384.746094 78.023438 375.457031 62.980469 352.816406 C 60.652344 349.308594 55.914062 348.351562 52.40625 350.679688 C 48.898438 353.003906 47.941406 357.738281 50.269531 361.242188 Z M 254.859375 110.054688 L 20.929688 343.707031 C 17.953125 346.679688 17.953125 351.511719 20.929688 354.480469 C 23.90625 357.457031 28.738281 357.457031 31.71875 354.480469 L 265.644531 120.832031 C 268.625 117.859375 268.625 113.03125 265.644531 110.054688 C 262.671875 107.085938 257.835938 107.085938 254.859375 110.054688 Z M 167.566406 230.96875 C 164.351562 239.425781 156.308594 247.675781 150.28125 255.433594 C 144.945312 262.300781 141.074219 269.007812 140.445312 274.945312 C 139.792969 281.15625 139.046875 291.304688 135.933594 300.214844 C 133.578125 306.96875 129.992188 313.300781 122.546875 314.289062 C 114.289062 315.390625 105.824219 313.550781 100.371094 308.546875 C 97.273438 305.699219 92.441406 305.902344 89.597656 309 C 86.746094 312.097656 86.949219 316.921875 90.050781 319.765625 C 98.574219 327.59375 111.644531 331.117188 124.566406 329.398438 C 135.679688 327.917969 143.003906 320.933594 147.65625 311.640625 C 153.355469 300.253906 154.710938 285.152344 155.621094 276.539062 C 155.828125 274.546875 156.96875 272.507812 158.367188 270.308594 C 160.332031 267.210938 162.90625 264 165.601562 260.683594 C 171.910156 252.925781 178.6875 244.640625 181.828125 236.378906 C 183.320312 232.445312 181.339844 228.042969 177.402344 226.546875 C 173.46875 225.054688 169.0625 227.035156 167.566406 230.96875 Z M 87.019531 229.554688 C 87.019531 229.554688 95.03125 213.535156 106.964844 201.289062 C 113.765625 194.304688 121.734375 188.128906 130.472656 189.023438 C 136.832031 189.675781 142.730469 191.980469 147.902344 195.230469 C 151.460938 197.472656 156.175781 196.402344 158.417969 192.84375 C 160.664062 189.285156 159.589844 184.578125 156.03125 182.335938 C 148.917969 177.863281 140.78125 174.761719 132.027344 173.867188 C 118.9375 172.523438 106.21875 180.203125 96.03125 190.660156 C 82.484375 204.5625 73.375 222.742188 73.375 222.742188 C 71.492188 226.503906 73.023438 231.082031 76.785156 232.964844 C 80.550781 234.84375 85.136719 233.316406 87.019531 229.554688 Z M 204.683594 196.226562 C 204.355469 199.023438 203.828125 201.859375 203.085938 204.730469 C 202.027344 208.800781 204.476562 212.960938 208.550781 214.015625 C 212.625 215.074219 216.792969 212.628906 217.847656 208.554688 C 218.777344 204.988281 219.433594 201.460938 219.835938 197.984375 C 220.324219 193.804688 217.320312 190.019531 213.140625 189.535156 C 208.957031 189.050781 205.167969 192.046875 204.683594 196.226562 Z M 226.890625 113.863281 C 193.769531 79.660156 142.488281 66.914062 100.894531 85.917969 C 73.300781 98.53125 49.667969 125.09375 38.757812 169.257812 C 37.75 173.339844 40.25 177.472656 44.335938 178.480469 C 48.421875 179.488281 52.558594 176.992188 53.570312 172.910156 C 63.089844 134.371094 83.160156 110.78125 107.242188 99.777344 C 143.160156 83.363281 187.324219 94.917969 215.921875 124.457031 C 218.851562 127.480469 223.683594 127.558594 226.707031 124.636719 C 229.734375 121.710938 229.816406 116.886719 226.890625 113.863281 Z M 89.71875 162.144531 C 99.191406 142.804688 112.941406 132.105469 127.855469 128.355469 C 150.316406 122.710938 174.957031 132.554688 190.261719 150.449219 C 192.996094 153.648438 197.8125 154.027344 201.011719 151.296875 C 204.214844 148.566406 204.59375 143.753906 201.859375 140.554688 C 182.847656 118.3125 152.050781 106.5625 124.132812 113.578125 C 105.460938 118.273438 87.871094 131.238281 76.015625 155.449219 C 74.164062 159.226562 75.734375 163.792969 79.515625 165.640625 C 83.296875 167.488281 87.867188 165.921875 89.71875 162.144531 Z M 89.71875 162.144531 " fill-opacity="1" fill-rule="evenodd"/></svg>